<mxfile host="app.diagrams.net" modified="2024-04-03T19:23:30.284Z" agent="Mozilla/5.0 (Windows NT 10.0; Win64; x64) AppleWebKit/537.36 (KHTML, like Gecko) Chrome/123.0.0.0 Safari/537.36" etag="P8QW1_PG5lN1DJ5Bt3J4" version="24.2.2" type="github">
  <diagram name="Página-1" id="l9NjJV3UIU0di-jHaN5E">
    <mxGraphModel dx="2577" dy="942" grid="1" gridSize="10" guides="1" tooltips="1" connect="1" arrows="1" fold="1" page="1" pageScale="1" pageWidth="827" pageHeight="1169" math="0" shadow="0">
      <root>
        <mxCell id="0" />
        <mxCell id="1" parent="0" />
        <mxCell id="zTk9nj11C0crPBSlD9do-26" value="Paciente" style="whiteSpace=wrap;html=1;align=center;" vertex="1" parent="1">
          <mxGeometry x="164" y="660" width="220" height="70" as="geometry" />
        </mxCell>
        <mxCell id="zTk9nj11C0crPBSlD9do-36" style="rounded=0;orthogonalLoop=1;jettySize=auto;html=1;entryX=0.5;entryY=0;entryDx=0;entryDy=0;endArrow=none;endFill=0;" edge="1" parent="1" source="zTk9nj11C0crPBSlD9do-30" target="zTk9nj11C0crPBSlD9do-26">
          <mxGeometry relative="1" as="geometry" />
        </mxCell>
        <mxCell id="zTk9nj11C0crPBSlD9do-30" value="nome" style="ellipse;whiteSpace=wrap;html=1;align=center;shadow=1;fontFamily=Lucida Console;fontStyle=2;verticalAlign=middle;labelBorderColor=none;labelBackgroundColor=none;textShadow=1;" vertex="1" parent="1">
          <mxGeometry x="220" y="520" width="120" height="60" as="geometry" />
        </mxCell>
        <mxCell id="zTk9nj11C0crPBSlD9do-31" value="numero de identificação" style="ellipse;whiteSpace=wrap;html=1;align=center;shadow=1;fontFamily=Lucida Console;fontStyle=2" vertex="1" parent="1">
          <mxGeometry x="70" y="520" width="120" height="60" as="geometry" />
        </mxCell>
        <mxCell id="zTk9nj11C0crPBSlD9do-35" style="rounded=0;orthogonalLoop=1;jettySize=auto;html=1;exitX=0.5;exitY=1;exitDx=0;exitDy=0;entryX=0.089;entryY=0.031;entryDx=0;entryDy=0;entryPerimeter=0;endArrow=none;endFill=0;" edge="1" parent="1">
          <mxGeometry relative="1" as="geometry">
            <mxPoint x="160.42000000000002" y="580" as="sourcePoint" />
            <mxPoint x="189.99999999999994" y="662.1700000000001" as="targetPoint" />
          </mxGeometry>
        </mxCell>
        <mxCell id="zTk9nj11C0crPBSlD9do-40" style="edgeStyle=orthogonalEdgeStyle;rounded=0;orthogonalLoop=1;jettySize=auto;html=1;curved=1;endArrow=none;endFill=0;" edge="1" parent="1">
          <mxGeometry relative="1" as="geometry">
            <mxPoint x="170" y="465.8676975726312" as="sourcePoint" />
            <mxPoint x="270" y="519.9957287525381" as="targetPoint" />
            <Array as="points">
              <mxPoint x="170" y="498.28" />
              <mxPoint x="270" y="498.28" />
            </Array>
          </mxGeometry>
        </mxCell>
        <mxCell id="zTk9nj11C0crPBSlD9do-85" style="edgeStyle=orthogonalEdgeStyle;rounded=0;orthogonalLoop=1;jettySize=auto;html=1;entryX=0;entryY=0;entryDx=0;entryDy=0;curved=1;endArrow=none;endFill=0;" edge="1" parent="1" source="zTk9nj11C0crPBSlD9do-37" target="zTk9nj11C0crPBSlD9do-77">
          <mxGeometry relative="1" as="geometry" />
        </mxCell>
        <mxCell id="zTk9nj11C0crPBSlD9do-37" value="&lt;span style=&quot;border-bottom: 1px dotted&quot;&gt;primeiroNome&lt;/span&gt;" style="ellipse;whiteSpace=wrap;html=1;align=center;fillColor=#f5f5f5;gradientColor=#b3b3b3;strokeColor=#666666;" vertex="1" parent="1">
          <mxGeometry x="950" y="480" width="140" height="50" as="geometry" />
        </mxCell>
        <mxCell id="zTk9nj11C0crPBSlD9do-41" style="edgeStyle=orthogonalEdgeStyle;rounded=0;orthogonalLoop=1;jettySize=auto;html=1;entryX=0.5;entryY=0;entryDx=0;entryDy=0;curved=1;endArrow=none;endFill=0;" edge="1" parent="1" source="zTk9nj11C0crPBSlD9do-39" target="zTk9nj11C0crPBSlD9do-30">
          <mxGeometry relative="1" as="geometry" />
        </mxCell>
        <mxCell id="zTk9nj11C0crPBSlD9do-39" value="&lt;span style=&quot;border-bottom: 1px dotted&quot;&gt;sobrenome&lt;/span&gt;" style="ellipse;whiteSpace=wrap;html=1;align=center;fillColor=#f5f5f5;gradientColor=#b3b3b3;strokeColor=#666666;" vertex="1" parent="1">
          <mxGeometry x="314" y="430" width="140" height="50" as="geometry" />
        </mxCell>
        <mxCell id="zTk9nj11C0crPBSlD9do-52" style="rounded=0;orthogonalLoop=1;jettySize=auto;html=1;entryX=0;entryY=0.75;entryDx=0;entryDy=0;endArrow=none;endFill=0;" edge="1" parent="1">
          <mxGeometry relative="1" as="geometry">
            <mxPoint x="72.14946638388733" y="629.999882605487" as="sourcePoint" />
            <mxPoint x="164" y="702.1700000000002" as="targetPoint" />
          </mxGeometry>
        </mxCell>
        <mxCell id="zTk9nj11C0crPBSlD9do-42" value="sexo" style="ellipse;whiteSpace=wrap;html=1;align=center;shadow=1;fontFamily=Lucida Console;fontStyle=2;" vertex="1" parent="1">
          <mxGeometry x="-20" y="585" width="120" height="60" as="geometry" />
        </mxCell>
        <mxCell id="zTk9nj11C0crPBSlD9do-63" style="rounded=0;orthogonalLoop=1;jettySize=auto;html=1;endArrow=none;endFill=0;" edge="1" parent="1" source="zTk9nj11C0crPBSlD9do-43" target="zTk9nj11C0crPBSlD9do-53">
          <mxGeometry relative="1" as="geometry" />
        </mxCell>
        <mxCell id="zTk9nj11C0crPBSlD9do-43" value="diagnostico" style="ellipse;whiteSpace=wrap;html=1;align=center;" vertex="1" parent="1">
          <mxGeometry x="470" y="410" width="140" height="50" as="geometry" />
        </mxCell>
        <mxCell id="zTk9nj11C0crPBSlD9do-64" style="rounded=0;orthogonalLoop=1;jettySize=auto;html=1;endArrow=none;endFill=0;" edge="1" parent="1" source="zTk9nj11C0crPBSlD9do-47" target="zTk9nj11C0crPBSlD9do-53">
          <mxGeometry relative="1" as="geometry" />
        </mxCell>
        <mxCell id="zTk9nj11C0crPBSlD9do-47" value="data" style="ellipse;whiteSpace=wrap;html=1;align=center;" vertex="1" parent="1">
          <mxGeometry x="640" y="410" width="140" height="50" as="geometry" />
        </mxCell>
        <mxCell id="zTk9nj11C0crPBSlD9do-53" value="consulta" style="whiteSpace=wrap;html=1;align=center;glass=1;rounded=1;fontFamily=Verdana;" vertex="1" parent="1">
          <mxGeometry x="620" y="515" width="220" height="70" as="geometry" />
        </mxCell>
        <mxCell id="zTk9nj11C0crPBSlD9do-66" style="rounded=0;orthogonalLoop=1;jettySize=auto;html=1;entryX=0;entryY=0.75;entryDx=0;entryDy=0;endArrow=none;endFill=0;" edge="1" parent="1" source="zTk9nj11C0crPBSlD9do-57" target="zTk9nj11C0crPBSlD9do-53">
          <mxGeometry relative="1" as="geometry" />
        </mxCell>
        <mxCell id="zTk9nj11C0crPBSlD9do-57" value="hora" style="ellipse;whiteSpace=wrap;html=1;align=center;" vertex="1" parent="1">
          <mxGeometry x="454" y="490" width="140" height="50" as="geometry" />
        </mxCell>
        <mxCell id="zTk9nj11C0crPBSlD9do-59" value="valor" style="ellipse;whiteSpace=wrap;html=1;align=center;" vertex="1" parent="1">
          <mxGeometry x="797" y="410" width="140" height="50" as="geometry" />
        </mxCell>
        <mxCell id="zTk9nj11C0crPBSlD9do-65" style="rounded=0;orthogonalLoop=1;jettySize=auto;html=1;entryX=0.785;entryY=0.023;entryDx=0;entryDy=0;entryPerimeter=0;endArrow=none;endFill=0;" edge="1" parent="1" source="zTk9nj11C0crPBSlD9do-59" target="zTk9nj11C0crPBSlD9do-53">
          <mxGeometry relative="1" as="geometry" />
        </mxCell>
        <mxCell id="zTk9nj11C0crPBSlD9do-69" value="numero de telefone" style="ellipse;whiteSpace=wrap;html=1;align=center;shadow=1;fontFamily=Lucida Console;fontStyle=2;" vertex="1" parent="1">
          <mxGeometry x="360" y="540" width="120" height="60" as="geometry" />
        </mxCell>
        <mxCell id="zTk9nj11C0crPBSlD9do-70" style="rounded=0;orthogonalLoop=1;jettySize=auto;html=1;entryX=0.85;entryY=0.008;entryDx=0;entryDy=0;entryPerimeter=0;endArrow=none;endFill=0;" edge="1" parent="1" source="zTk9nj11C0crPBSlD9do-69" target="zTk9nj11C0crPBSlD9do-26">
          <mxGeometry relative="1" as="geometry" />
        </mxCell>
        <mxCell id="zTk9nj11C0crPBSlD9do-75" value="medico" style="whiteSpace=wrap;html=1;align=center;" vertex="1" parent="1">
          <mxGeometry x="1000" y="730" width="220" height="70" as="geometry" />
        </mxCell>
        <mxCell id="zTk9nj11C0crPBSlD9do-80" style="rounded=0;orthogonalLoop=1;jettySize=auto;html=1;entryX=0.5;entryY=0;entryDx=0;entryDy=0;endArrow=none;endFill=0;" edge="1" parent="1" source="zTk9nj11C0crPBSlD9do-77" target="zTk9nj11C0crPBSlD9do-75">
          <mxGeometry relative="1" as="geometry" />
        </mxCell>
        <mxCell id="zTk9nj11C0crPBSlD9do-77" value="nome" style="ellipse;whiteSpace=wrap;html=1;align=center;shadow=1;fontFamily=Lucida Console;fontStyle=2;verticalAlign=middle;labelBorderColor=none;labelBackgroundColor=none;textShadow=1;" vertex="1" parent="1">
          <mxGeometry x="1060" y="570" width="120" height="60" as="geometry" />
        </mxCell>
        <mxCell id="zTk9nj11C0crPBSlD9do-78" value="&lt;span style=&quot;border-bottom: 1px dotted&quot;&gt;primeiroNome&lt;/span&gt;" style="ellipse;whiteSpace=wrap;html=1;align=center;fillColor=#f5f5f5;gradientColor=#b3b3b3;strokeColor=#666666;" vertex="1" parent="1">
          <mxGeometry x="110" y="430" width="140" height="50" as="geometry" />
        </mxCell>
        <mxCell id="zTk9nj11C0crPBSlD9do-81" style="edgeStyle=orthogonalEdgeStyle;rounded=0;orthogonalLoop=1;jettySize=auto;html=1;entryX=1;entryY=0;entryDx=0;entryDy=0;curved=1;endArrow=none;endFill=0;" edge="1" parent="1" source="zTk9nj11C0crPBSlD9do-79" target="zTk9nj11C0crPBSlD9do-77">
          <mxGeometry relative="1" as="geometry" />
        </mxCell>
        <mxCell id="zTk9nj11C0crPBSlD9do-79" value="&lt;span style=&quot;border-bottom: 1px dotted&quot;&gt;sobrenome&lt;/span&gt;" style="ellipse;whiteSpace=wrap;html=1;align=center;fillColor=#f5f5f5;gradientColor=#b3b3b3;strokeColor=#666666;" vertex="1" parent="1">
          <mxGeometry x="1180" y="480" width="140" height="50" as="geometry" />
        </mxCell>
        <mxCell id="zTk9nj11C0crPBSlD9do-86" value="salario" style="ellipse;whiteSpace=wrap;html=1;align=center;shadow=1;fontFamily=Lucida Console;fontStyle=2;verticalAlign=middle;labelBorderColor=none;labelBackgroundColor=none;textShadow=1;" vertex="1" parent="1">
          <mxGeometry x="1211" y="580" width="120" height="60" as="geometry" />
        </mxCell>
        <mxCell id="zTk9nj11C0crPBSlD9do-87" style="rounded=0;orthogonalLoop=1;jettySize=auto;html=1;entryX=0.833;entryY=0.005;entryDx=0;entryDy=0;entryPerimeter=0;endArrow=none;endFill=0;" edge="1" parent="1" source="zTk9nj11C0crPBSlD9do-86" target="zTk9nj11C0crPBSlD9do-75">
          <mxGeometry relative="1" as="geometry" />
        </mxCell>
        <mxCell id="zTk9nj11C0crPBSlD9do-90" style="rounded=0;orthogonalLoop=1;jettySize=auto;html=1;entryX=0.14;entryY=-0.01;entryDx=0;entryDy=0;entryPerimeter=0;endArrow=none;endFill=0;" edge="1" parent="1" target="zTk9nj11C0crPBSlD9do-75">
          <mxGeometry relative="1" as="geometry">
            <mxPoint x="993.088757822452" y="644.2774846028533" as="sourcePoint" />
          </mxGeometry>
        </mxCell>
        <mxCell id="zTk9nj11C0crPBSlD9do-91" value="sexo" style="ellipse;whiteSpace=wrap;html=1;align=center;shadow=1;fontFamily=Lucida Console;fontStyle=2;verticalAlign=middle;labelBorderColor=none;labelBackgroundColor=none;textShadow=1;" vertex="1" parent="1">
          <mxGeometry x="920" y="585" width="120" height="60" as="geometry" />
        </mxCell>
        <mxCell id="zTk9nj11C0crPBSlD9do-94" style="rounded=0;orthogonalLoop=1;jettySize=auto;html=1;entryX=1;entryY=0.75;entryDx=0;entryDy=0;endArrow=none;endFill=0;" edge="1" parent="1" source="zTk9nj11C0crPBSlD9do-92" target="zTk9nj11C0crPBSlD9do-75">
          <mxGeometry relative="1" as="geometry" />
        </mxCell>
        <mxCell id="zTk9nj11C0crPBSlD9do-92" value="especialidade" style="ellipse;whiteSpace=wrap;html=1;align=center;shadow=1;fontFamily=Lucida Console;fontStyle=2;verticalAlign=middle;labelBorderColor=none;labelBackgroundColor=none;textShadow=1;" vertex="1" parent="1">
          <mxGeometry x="1280" y="660" width="120" height="60" as="geometry" />
        </mxCell>
        <mxCell id="zTk9nj11C0crPBSlD9do-97" style="edgeStyle=none;rounded=0;orthogonalLoop=1;jettySize=auto;html=1;entryX=0;entryY=0.75;entryDx=0;entryDy=0;strokeColor=default;align=center;verticalAlign=middle;fontFamily=Helvetica;fontSize=11;fontColor=default;labelBackgroundColor=default;endArrow=none;endFill=0;" edge="1" parent="1" source="zTk9nj11C0crPBSlD9do-95" target="zTk9nj11C0crPBSlD9do-26">
          <mxGeometry relative="1" as="geometry" />
        </mxCell>
        <mxCell id="zTk9nj11C0crPBSlD9do-95" value="dataNascimento" style="ellipse;whiteSpace=wrap;html=1;align=center;shadow=1;fontFamily=Lucida Console;fontStyle=2;" vertex="1" parent="1">
          <mxGeometry x="-20" y="680" width="120" height="60" as="geometry" />
        </mxCell>
        <mxCell id="zTk9nj11C0crPBSlD9do-100" value="endereço" style="whiteSpace=wrap;html=1;align=center;" vertex="1" parent="1">
          <mxGeometry x="480" y="810" width="220" height="70" as="geometry" />
        </mxCell>
        <mxCell id="zTk9nj11C0crPBSlD9do-108" style="edgeStyle=none;rounded=0;orthogonalLoop=1;jettySize=auto;html=1;exitX=0;exitY=1;exitDx=0;exitDy=0;strokeColor=default;align=center;verticalAlign=middle;fontFamily=Helvetica;fontSize=11;fontColor=default;labelBackgroundColor=default;endArrow=none;endFill=0;" edge="1" parent="1" source="zTk9nj11C0crPBSlD9do-101" target="zTk9nj11C0crPBSlD9do-100">
          <mxGeometry relative="1" as="geometry" />
        </mxCell>
        <mxCell id="zTk9nj11C0crPBSlD9do-101" value="ce&lt;span style=&quot;color: rgba(0, 0, 0, 0); font-family: monospace; font-size: 0px; font-style: normal; text-align: start; text-wrap: nowrap;&quot;&gt;%3CmxGraphModel%3E%3Croot%3E%3CmxCell%20id%3D%220%22%2F%3E%3CmxCell%20id%3D%221%22%20parent%3D%220%22%2F%3E%3CmxCell%20id%3D%222%22%20value%3D%22dataNascimento%22%20style%3D%22ellipse%3BwhiteSpace%3Dwrap%3Bhtml%3D1%3Balign%3Dcenter%3Bshadow%3D1%3BfontFamily%3DLucida%20Console%3BfontStyle%3D2%3B%22%20vertex%3D%221%22%20parent%3D%221%22%3E%3CmxGeometry%20x%3D%22-20%22%20y%3D%22680%22%20width%3D%22120%22%20height%3D%2260%22%20as%3D%22geometry%22%2F%3E%3C%2FmxCell%3E%3C%2Froot%3E%3C%2FmxGraphModel%3E&lt;/span&gt;p&lt;span style=&quot;color: rgba(0, 0, 0, 0); font-family: monospace; font-size: 0px; font-style: normal; text-align: start; text-wrap: nowrap;&quot;&gt;%3CmxGraphModel%3E%3Croot%3E%3CmxCell%20id%3D%220%22%2F%3E%3CmxCell%20id%3D%221%22%20parent%3D%220%22%2F%3E%3CmxCell%20id%3D%222%22%20value%3D%22dataNascimento%22%20style%3D%22ellipse%3BwhiteSpace%3Dwrap%3Bhtml%3D1%3Balign%3Dcenter%3Bshadow%3D1%3BfontFamily%3DLucida%20Console%3BfontStyle%3D2%3B%22%20vertex%3D%221%22%20parent%3D%221%22%3E%3CmxGeometry%20x%3D%22-20%22%20y%3D%22680%22%20width%3D%22120%22%20height%3D%2260%22%20as%3D%22geometry%22%2F%3E%3C%2FmxCell%3E%3C%2Froot%3E%3C%2FmxGraphModel%3E&lt;/span&gt;" style="ellipse;whiteSpace=wrap;html=1;align=center;shadow=1;fontFamily=Lucida Console;fontStyle=2;" vertex="1" parent="1">
          <mxGeometry x="720" y="730" width="120" height="60" as="geometry" />
        </mxCell>
        <mxCell id="zTk9nj11C0crPBSlD9do-109" style="edgeStyle=none;rounded=0;orthogonalLoop=1;jettySize=auto;html=1;exitX=0;exitY=0.5;exitDx=0;exitDy=0;entryX=1;entryY=0.5;entryDx=0;entryDy=0;strokeColor=default;align=center;verticalAlign=middle;fontFamily=Helvetica;fontSize=11;fontColor=default;labelBackgroundColor=default;endArrow=none;endFill=0;" edge="1" parent="1" source="zTk9nj11C0crPBSlD9do-102" target="zTk9nj11C0crPBSlD9do-100">
          <mxGeometry relative="1" as="geometry" />
        </mxCell>
        <mxCell id="zTk9nj11C0crPBSlD9do-102" value="rua&lt;span style=&quot;color: rgba(0, 0, 0, 0); font-family: monospace; font-size: 0px; font-style: normal; text-align: start; text-wrap: nowrap;&quot;&gt;%3CmxGraphModel%3E%3Croot%3E%3CmxCell%20id%3D%220%22%2F%3E%3CmxCell%20id%3D%221%22%20parent%3D%220%22%2F%3E%3CmxCell%20id%3D%222%22%20value%3D%22ce%26lt%3Bspan%20style%3D%26quot%3Bcolor%3A%20rgba(0%2C%200%2C%200%2C%200)%3B%20font-family%3A%20monospace%3B%20font-size%3A%200px%3B%20font-style%3A%20normal%3B%20text-align%3A%20start%3B%20text-wrap%3A%20nowrap%3B%26quot%3B%26gt%3B%253CmxGraphModel%253E%253Croot%253E%253CmxCell%2520id%253D%25220%2522%252F%253E%253CmxCell%2520id%253D%25221%2522%2520parent%253D%25220%2522%252F%253E%253CmxCell%2520id%253D%25222%2522%2520value%253D%2522dataNascimento%2522%2520style%253D%2522ellipse%253BwhiteSpace%253Dwrap%253Bhtml%253D1%253Balign%253Dcenter%253Bshadow%253D1%253BfontFamily%253DLucida%2520Console%253BfontStyle%253D2%253B%2522%2520vertex%253D%25221%2522%2520parent%253D%25221%2522%253E%253CmxGeometry%2520x%253D%2522-20%2522%2520y%253D%2522680%2522%2520width%253D%2522120%2522%2520height%253D%252260%2522%2520as%253D%2522geometry%2522%252F%253E%253C%252FmxCell%253E%253C%252Froot%253E%253C%252FmxGraphModel%253E%26lt%3B%2Fspan%26gt%3Bp%26lt%3Bspan%20style%3D%26quot%3Bcolor%3A%20rgba(0%2C%200%2C%200%2C%200)%3B%20font-family%3A%20monospace%3B%20font-size%3A%200px%3B%20font-style%3A%20normal%3B%20text-align%3A%20start%3B%20text-wrap%3A%20nowrap%3B%26quot%3B%26gt%3B%253CmxGraphModel%253E%253Croot%253E%253CmxCell%2520id%253D%25220%2522%252F%253E%253CmxCell%2520id%253D%25221%2522%2520parent%253D%25220%2522%252F%253E%253CmxCell%2520id%253D%25222%2522%2520value%253D%2522dataNascimento%2522%2520style%253D%2522ellipse%253BwhiteSpace%253Dwrap%253Bhtml%253D1%253Balign%253Dcenter%253Bshadow%253D1%253BfontFamily%253DLucida%2520Console%253BfontStyle%253D2%253B%2522%2520vertex%253D%25221%2522%2520parent%253D%25221%2522%253E%253CmxGeometry%2520x%253D%2522-20%2522%2520y%253D%2522680%2522%2520width%253D%2522120%2522%2520height%253D%252260%2522%2520as%253D%2522geometry%2522%252F%253E%253C%252FmxCell%253E%253C%252Froot%253E%253C%252FmxGraphModel%253E%26lt%3B%2Fspan%26gt%3B%22%20style%3D%22ellipse%3BwhiteSpace%3Dwrap%3Bhtml%3D1%3Balign%3Dcenter%3Bshadow%3D1%3BfontFamily%3DLucida%20Console%3BfontStyle%3D2%3B%22%20vertex%3D%221%22%20parent%3D%221%22%3E%3CmxGeometry%20x%3D%22720%22%20y%3D%22730%22%20width%3D%22120%22%20height%3D%2260%22%20as%3D%22geometry%22%2F%3E%3C%2FmxCell%3E%3C%2Froot%3E%3C%2FmxGraphModel%3E&lt;/span&gt;" style="ellipse;whiteSpace=wrap;html=1;align=center;shadow=1;fontFamily=Lucida Console;fontStyle=2;" vertex="1" parent="1">
          <mxGeometry x="750" y="810" width="120" height="60" as="geometry" />
        </mxCell>
        <mxCell id="zTk9nj11C0crPBSlD9do-110" style="edgeStyle=none;rounded=0;orthogonalLoop=1;jettySize=auto;html=1;exitX=0;exitY=0;exitDx=0;exitDy=0;strokeColor=default;align=center;verticalAlign=middle;fontFamily=Helvetica;fontSize=11;fontColor=default;labelBackgroundColor=default;endArrow=none;endFill=0;" edge="1" parent="1" source="zTk9nj11C0crPBSlD9do-103" target="zTk9nj11C0crPBSlD9do-100">
          <mxGeometry relative="1" as="geometry" />
        </mxCell>
        <mxCell id="zTk9nj11C0crPBSlD9do-103" value="estado" style="ellipse;whiteSpace=wrap;html=1;align=center;shadow=1;fontFamily=Lucida Console;fontStyle=2;" vertex="1" parent="1">
          <mxGeometry x="750" y="900" width="120" height="60" as="geometry" />
        </mxCell>
        <mxCell id="zTk9nj11C0crPBSlD9do-107" style="edgeStyle=none;rounded=0;orthogonalLoop=1;jettySize=auto;html=1;strokeColor=default;align=center;verticalAlign=middle;fontFamily=Helvetica;fontSize=11;fontColor=default;labelBackgroundColor=default;endArrow=none;endFill=0;" edge="1" parent="1" source="zTk9nj11C0crPBSlD9do-106" target="zTk9nj11C0crPBSlD9do-100">
          <mxGeometry relative="1" as="geometry" />
        </mxCell>
        <mxCell id="zTk9nj11C0crPBSlD9do-106" value="bairro" style="ellipse;whiteSpace=wrap;html=1;align=center;shadow=1;fontFamily=Lucida Console;fontStyle=2;" vertex="1" parent="1">
          <mxGeometry x="580" y="710" width="130" height="60" as="geometry" />
        </mxCell>
        <mxCell id="zTk9nj11C0crPBSlD9do-113" style="edgeStyle=none;rounded=0;orthogonalLoop=1;jettySize=auto;html=1;strokeColor=default;align=center;verticalAlign=middle;fontFamily=Helvetica;fontSize=11;fontColor=default;labelBackgroundColor=default;endArrow=none;endFill=0;" edge="1" parent="1" source="zTk9nj11C0crPBSlD9do-112" target="zTk9nj11C0crPBSlD9do-26">
          <mxGeometry relative="1" as="geometry" />
        </mxCell>
        <mxCell id="zTk9nj11C0crPBSlD9do-112" value="identificador endereço" style="ellipse;whiteSpace=wrap;html=1;align=center;" vertex="1" parent="1">
          <mxGeometry x="414" y="665" width="140" height="50" as="geometry" />
        </mxCell>
        <mxCell id="zTk9nj11C0crPBSlD9do-115" style="edgeStyle=none;rounded=0;orthogonalLoop=1;jettySize=auto;html=1;strokeColor=default;align=center;verticalAlign=middle;fontFamily=Helvetica;fontSize=11;fontColor=default;labelBackgroundColor=default;endArrow=none;endFill=0;entryX=0.417;entryY=0.992;entryDx=0;entryDy=0;entryPerimeter=0;" edge="1" parent="1" source="zTk9nj11C0crPBSlD9do-114" target="zTk9nj11C0crPBSlD9do-53">
          <mxGeometry relative="1" as="geometry">
            <mxPoint x="600" y="650" as="targetPoint" />
          </mxGeometry>
        </mxCell>
        <mxCell id="zTk9nj11C0crPBSlD9do-114" value="identificador paciente" style="ellipse;whiteSpace=wrap;html=1;align=center;" vertex="1" parent="1">
          <mxGeometry x="510" y="610" width="140" height="50" as="geometry" />
        </mxCell>
      </root>
    </mxGraphModel>
  </diagram>
</mxfile>
